<svg id="visual" viewBox="0 0 900 600" width="900" height="600" xmlns="http://www.w3.org/2000/svg" xmlns:xlink="http://www.w3.org/1999/xlink" version="1.1"><rect x="0" y="0" width="900" height="600" fill="#202124"></rect><path d="M0 432L21.5 432C43 432 86 432 128.8 426.7C171.7 421.3 214.3 410.7 257.2 397.5C300 384.3 343 368.7 385.8 374.2C428.7 379.7 471.3 406.3 514.2 407.2C557 408 600 383 642.8 371.8C685.7 360.7 728.3 363.3 771.2 378.5C814 393.7 857 421.3 878.5 435.2L900 449L900 601L878.5 601C857 601 814 601 771.2 601C728.3 601 685.7 601 642.8 601C600 601 557 601 514.2 601C471.3 601 428.7 601 385.8 601C343 601 300 601 257.2 601C214.3 601 171.7 601 128.8 601C86 601 43 601 21.5 601L0 601Z" fill="#c62368"></path><path d="M0 459L21.5 449C43 439 86 419 128.8 421.5C171.7 424 214.3 449 257.2 459C300 469 343 464 385.8 451.7C428.7 439.3 471.3 419.7 514.2 414.8C557 410 600 420 642.8 429.3C685.7 438.7 728.3 447.3 771.2 450.7C814 454 857 452 878.5 451L900 450L900 601L878.5 601C857 601 814 601 771.2 601C728.3 601 685.7 601 642.8 601C600 601 557 601 514.2 601C471.3 601 428.7 601 385.8 601C343 601 300 601 257.2 601C214.3 601 171.7 601 128.8 601C86 601 43 601 21.5 601L0 601Z" fill="#d53867"></path><path d="M0 477L21.5 472.8C43 468.7 86 460.3 128.8 454C171.7 447.7 214.3 443.3 257.2 451.7C300 460 343 481 385.8 489.3C428.7 497.7 471.3 493.3 514.2 492.8C557 492.3 600 495.7 642.8 494.2C685.7 492.7 728.3 486.3 771.2 477.5C814 468.7 857 457.3 878.5 451.7L900 446L900 601L878.5 601C857 601 814 601 771.2 601C728.3 601 685.7 601 642.8 601C600 601 557 601 514.2 601C471.3 601 428.7 601 385.8 601C343 601 300 601 257.2 601C214.3 601 171.7 601 128.8 601C86 601 43 601 21.5 601L0 601Z" fill="#e34c67"></path><path d="M0 495L21.5 501C43 507 86 519 128.8 520.8C171.7 522.7 214.3 514.3 257.2 506C300 497.7 343 489.3 385.8 490.7C428.7 492 471.3 503 514.2 506.5C557 510 600 506 642.8 501.5C685.7 497 728.3 492 771.2 498.5C814 505 857 523 878.5 532L900 541L900 601L878.5 601C857 601 814 601 771.2 601C728.3 601 685.7 601 642.8 601C600 601 557 601 514.2 601C471.3 601 428.7 601 385.8 601C343 601 300 601 257.2 601C214.3 601 171.7 601 128.8 601C86 601 43 601 21.5 601L0 601Z" fill="#ef5f67"></path><path d="M0 528L21.5 527.3C43 526.7 86 525.3 128.8 526.5C171.7 527.7 214.3 531.3 257.2 537.7C300 544 343 553 385.8 557C428.7 561 471.3 560 514.2 558.3C557 556.7 600 554.3 642.8 548.5C685.7 542.7 728.3 533.3 771.2 532.7C814 532 857 540 878.5 544L900 548L900 601L878.5 601C857 601 814 601 771.2 601C728.3 601 685.7 601 642.8 601C600 601 557 601 514.2 601C471.3 601 428.7 601 385.8 601C343 601 300 601 257.2 601C214.3 601 171.7 601 128.8 601C86 601 43 601 21.5 601L0 601Z" fill="#fa7268"></path></svg>
