<svg id="visual" viewBox="0 0 900 600" width="900" height="600" xmlns="http://www.w3.org/2000/svg" xmlns:xlink="http://www.w3.org/1999/xlink" version="1.1"><rect x="0" y="0" width="900" height="600" fill="#202124"></rect><path d="M0 448L21.5 444C43 440 86 432 128.8 419.7C171.7 407.3 214.3 390.7 257.2 384.3C300 378 343 382 385.8 395C428.7 408 471.3 430 514.2 452C557 474 600 496 642.8 489.5C685.7 483 728.3 448 771.2 448.8C814 449.7 857 486.3 878.5 504.7L900 523L900 601L878.5 601C857 601 814 601 771.2 601C728.3 601 685.7 601 642.8 601C600 601 557 601 514.2 601C471.3 601 428.7 601 385.8 601C343 601 300 601 257.2 601C214.3 601 171.7 601 128.8 601C86 601 43 601 21.5 601L0 601Z" fill="#bbb" stroke-linecap="round" stroke-linejoin="miter"></path></svg>